<?xml version="1.0"?><svg width="640" height="480" xmlns="http://www.w3.org/2000/svg">
 <title>Mt. Rainier</title>
 <g>
  <title>Layer 1</title>
  <path d="m46.671902,194.945999c9.629799,-3.360992 19.518795,-5.929993 28.991001,-9.669998c9.751595,-0.912994 18.260094,-5.785004 27.447098,-8.602005c4.698997,-1.987 12.788002,-5.291 14.843002,-5.179993c2.055,-0.143997 10.298004,0.578995 15.306,2.05899c9.431992,-0.069 14.679993,-9.584991 25.787003,-11.203995c8.479996,-5.751999 18.690994,-2.865005 28.078995,-5.190994c10.541,-0.813004 17.675003,-10.367004 28.623001,-9.757004c9.378998,-1.102997 19.393997,-2.960007 27.819992,-7.003998c10.39801,-2.617004 17.902008,-6.395004 27.721008,-7.591003c11.138,0.776993 27.257996,6.494003 36.066986,-1.399994c7.740997,-4.847008 16.401001,-7.655006 24.386017,-12.034004c8.708008,-2.534004 16.562988,-7.241005 24.583008,-11.221001c4.40799,-1.234001 7.757996,-3.948997 10.753998,-7.136002c2.994995,-3.188103 5.634979,-6.848701 8.623993,-9.974098c8.60199,-3.723305 15.557983,-9.142403 21.897003,-15.996902c4.225006,-5.018097 5.928009,-12.401398 13.710999,-13.726398c6.178986,-6.141701 13.027008,-11.4431 19.55899,-17.2341c2.931,-9.029999 13.722992,-11.023701 21.234009,-15.1817c4.371002,-1.9485 8.472992,-2.509001 12.572998,-3.330601c4.101013,0.833801 8.200012,2.679701 12.056,5.289301c1.376984,0.842899 11.67099,-0.7906 13.085999,-0.142601c0.898987,0.451401 3.589996,3.160301 6.531006,4.4081c2.686981,0.356499 6.134979,1.034599 6.510986,1.7537c0.75,1.6479 0.710999,1.4506 1.46402,2.480202c8.477966,3.602997 17.320007,8.888798 20.976013,11.369698c4.412964,1.603703 8.774963,3.315903 13.075989,5.181c4.299988,1.865101 8.536987,3.883102 12.698975,6.098602c7.820984,0.628098 8.541016,12.754402 19.718994,16.958801c7.413025,7.857895 17.669006,11.406494 25.14801,19.0131c9.340027,5.164902 18.846008,8.648895 29.958008,7.580894c7.226013,0.326004 15.789978,12.358002 23.406982,17.251007c7.51001,2.010994 15.77301,1.093994 22.647034,6.50499c8.06897,6.042999 15.59198,11.311005 22.776978,18.443008c6.070984,7.470993 14.775024,12.035995 24.632996,9.649994c10.374023,0.156998 19.705017,-6.024994 30.192017,-2.194c12.781982,1.600006 24.732971,6.833008 35.997009,12.896011c8.604004,3.187988 15.201965,11.927994 25.179993,10.544998c12.122986,0.974991 24.612,1.151993 35.911011,6.274994c8.757996,3.361008 18.64801,1.681 26.824951,6.746994c12.989014,4.920013 16.320007,6.448013 28.789001,12.918015c9.954041,3.602997 24.359009,7.440994 31.496033,13.899994c7.973999,5.865005 17.047974,9.466995 25.909973,13.166992c9.257019,8.041 -19.455994,2.791 -23.690979,3.009003c-17.599976,-0.39299 -28.677002,8.376007 -38.28302,10.900009c-10.685974,3.715988 -19.950989,4.612 -29.339966,-0.271011c-10.723999,-3.297989 -22.113037,-3.748001 -33.226013,-4.516998c-6.409973,0.630005 -16.854004,-5.608002 -20.984009,-0.595001c2.523987,9.63501 4.241028,13.945999 -8.297974,10.255005c-9.873047,-3.289001 -19.30304,-7.567993 -28.880005,-11.580002c-12.327026,-3.289001 -24.197021,-9.550995 -37.338013,-8.266998c-11.515015,-0.718002 -22.908997,0.915009 -34.309021,1.378006c-12.445984,-0.371002 -25.25,-1.575012 -37.336975,2.175995c-9.971008,2.772003 -19.997986,5.399994 -29.819031,8.466995c-11.067993,7.330002 -24.984985,3.290009 -37.311951,3.215012c-10.861023,-0.397003 -21.532043,-1.835007 -31.809998,-5.518005c-17.954041,-5.619003 -36.579041,-8.425995 -54.937012,-12.313004c-12.118011,-2.606995 -24.328003,-5.354004 -35.285004,-11.391998c-8.233002,-3.686996 -16.166016,-8.013992 -24.47702,-11.378998c-6.822998,-4.503998 -17.436981,-12.706009 -23.934998,-3.499008c-8.91098,4.328003 -19.104004,4.242004 -26.660004,11.45401c-5.403992,9.29599 -14.436981,14.640991 -25.500977,12.468002c-10.243011,2.620987 -20.411011,0.063995 -30.482025,-2.029999c-11.422974,-2.470001 -22.444,-6.529007 -34.196991,-7.28801c-10.394989,-2.194992 -20.95401,-3.313004 -31.51001,-4.397003c-11.023987,-1.391998 -22.875,0.429001 -32.939987,-5.251999c-11.677994,-1.649002 10.089005,-11.700989 -2.763992,-11.638c-13.165009,-0.549988 -26.928009,-0.207001 -39.068008,5.432007c-9.776001,4.742004 -23.164993,-2.820007 -31.104996,4.998001c-3.388,9.22699 -14.541,5.494995 -21.945007,7.276993c-9.595001,4.764999 -20.360001,4.658005 -30.697998,6.378998c-8.528999,1.715012 -17.248993,2.789001 -25.631996,-0.845993c-14.221802,-4.061996 -28.338097,-10.457001 -43.4627,-9.084c-12.1828,-0.005997 -24.3603,1.746002 -36.5338,0.914993c8.9692,-2.485001 16.884001,-7.138 24.179701,-12.916c1.445499,-0.897995 2.927299,-1.812988 4.5867,-2.259995z" stroke-width="1px" stroke-opacity="0.660714" fill-rule="evenodd" fill="#aad4ff" id="path2639"/>
  <path d="m302.095001,134.416c-1.619995,0.766006 -4.26001,1.320999 -8.434998,1.175995c-7.417999,-0.257996 -13.811005,-2.218994 -21.77301,-2.705994c1.860016,4.112991 4.606995,11.222 5.583008,15.125992c1.404999,5.623001 -1.886993,10.308014 -5.763,12.246002c-2.605011,1.302002 -4.893005,2.445999 -7.203003,3.600998c-2.77301,1.387009 -4.789001,2.395004 -7.203003,3.602005c-3.528992,1.764008 -2.894989,4.986008 -2.160995,7.923004c0.639999,2.559998 4.590988,5.311996 5.763016,6.483002c2.27298,2.274002 4.149994,1.817993 5.761993,5.041992c1.656982,3.314011 1.391998,6.679001 0.720001,9.363998c-0.958008,3.834 -0.835999,5.647003 1.440979,7.924011c2.286011,2.285995 4.301025,3.595993 7.203003,4.320999c3.624023,0.905991 4.552002,1.931 7.203003,-0.720001c1.976013,-1.975998 1.40802,-5.891998 0.721008,-8.643997c-0.45401,-1.815002 -3.987,-4.707001 -5.042999,-5.762009c-3.190002,-3.190994 2.928986,0.024002 4.321991,0.720001c3.494019,1.746994 4.602997,2.451004 8.644012,1.440994c3.147003,-0.786987 3.60199,-3.669998 3.60199,-7.202988c0,-2.595001 -4.156006,-6.31601 -5.042999,-7.203003c-2.931,-2.932007 -2.132996,-3.602005 1.44101,-3.602005c2.588989,0 6.078003,1.958008 7.923004,2.880997c2.866974,1.434006 3.669983,5.317001 4.321991,7.924011c1.171997,4.687988 5.613007,-3.725006 5.763,-4.322006c0.720001,-2.880005 2.863983,-4.255005 3.600983,-7.203003c0.45401,-1.813004 7.197021,-3.60199 0,-3.60199c-4.468994,0 -6.517975,-0.035004 -8.642975,-2.161011c-2.434021,-2.43399 -3.60202,-2.875 -3.60202,-7.203003c0,-3.696991 1.626007,-5.412994 2.881012,-7.922989c1.458984,-2.917999 1.44101,-5.340012 1.44101,-9.363998c0,-2.53801 -2.78302,-6.286011 -3.60202,-7.924011c-0.321991,-0.643997 0.13501,-3.511002 0.13501,-4.231995zm202.230011,-95.056099c2.912994,6.792 -37.864014,82.250099 -57.623016,68.4161c4.371002,-1.948997 32.963013,-52.570801 17.975006,-82.204802c4.101013,0.833801 8.200012,2.679701 12.056,5.289301c1.376984,0.842899 11.67099,-0.7906 13.085999,-0.142601c0.898987,0.451401 3.589996,3.160301 6.531006,4.4081c2.686981,0.356499 6.134979,1.034599 6.510986,1.753601c0.75,1.647999 0.710999,1.450699 1.46402,2.480301l0,0zm325.083008,141.066093c-2.69104,-0.889999 -10.414001,-1.313995 -18.847046,-1.774994c-5.882996,0.938995 -12.685974,-3.149994 -21.714966,-9.011993c-8.488037,-4.332001 -15.962036,-7.734009 -21.38501,-9.742004c-0.802002,2.233994 0.294006,5.166 -5.942017,8.283997c-2.278992,1.139999 -2.161011,5.764999 -2.161011,8.643997c0,2.95401 -3.390991,5.341003 -4.32196,7.203003c-1.228027,2.457001 -3.791016,4.056 -5.763,5.042007c-2.447998,1.223999 -2.892029,5.085999 -3.601013,7.922989c-0.856995,3.430008 -0.002014,5.040009 2.161011,7.20401c2.200989,2.200989 7.179993,0.010986 8.643982,-0.721008c1.79303,-0.897003 2.911011,-5.822998 3.601013,-7.203003c0.796997,-1.593994 6.794006,-1.440002 9.364014,-1.440002c2.065002,0 5.791992,2.348007 7.924011,2.881012c5.615967,1.403992 7.391968,-1.214005 8.642944,5.041992c0.593018,2.964996 -7.462952,2.391006 -0.719971,5.762009c2.760986,1.380997 5.036011,2.159988 7.922974,2.881989c3.137024,0.784012 4.609009,2.052002 7.924011,2.881012c3.351013,0.837997 6.119995,1.529999 8.644043,2.160995c1.251953,0.313004 3.238953,6.479004 3.600952,7.203003c0.300049,0.598999 5.670044,-4.949997 5.763,-5.042007c2.301025,-2.300995 4.742004,-2.085999 7.923035,-2.880997c3.428955,-0.858002 6.817993,1.524002 9.364014,2.160004c3.927979,0.981995 6.001953,0.839996 8.643982,2.160995c3.231995,1.617004 3.601013,3.067001 3.601013,7.203995c0,2.75 -4.144043,4.233002 -5.762024,5.042007c-2.924988,1.462006 -6.97998,0.595993 -9.364014,0c-3.140991,-0.785995 -7.547974,0 -10.804993,0c-3.632996,0 -7.310974,0.442001 -10.804993,1.440002c-2.85498,0.815994 44.231018,8.716995 46.820984,9.363998c3.312988,0.828995 7.364014,0.5 9.364014,0c2.880981,-0.720001 -2.161011,-5.673004 -2.161011,-8.643005c0,-3.440994 -0.132996,-7.733994 -0.721008,-10.084991c-0.701965,-2.810013 -3.993958,-3.274002 -5.761963,-5.042007c-2.288025,-2.287994 -3.608032,-4.347 -4.322021,-7.203003c-0.914978,-3.659988 -3.53302,-5.367996 -5.762024,-6.483002c-2.750977,-1.375 -3.992981,-3.075989 -6.482971,-4.321991c-3.671021,-1.835007 -4.809998,-6.018005 -6.482971,-9.363998c-1.22406,-2.447006 -5.422058,-9.924011 -7.02301,-11.525009z" stroke-width="1px" fill-rule="evenodd" fill="#007f7f" opacity="0.31" id="path3742"/>
  <path d="m538.309021,55.833c-2.853027,-1.204899 -9.327026,-3.9529 -13.119995,-5.3311c-6.494019,-4.439598 -15.979034,-9.490299 -20.623016,-11.158699c-4.606995,2.065399 -9.532013,6.0896 -14.128998,8.167301c-2.600006,1.8932 -5.401001,3.525398 -8.147003,5.1572c-1.140015,2.084 -5.131012,7.300697 0.006989,6.599098c2.921997,-0.725101 7.019989,0.927399 3.970001,4.253899c-0.73999,3.592003 -7.653992,4.187004 -3.585999,8.020401c-1.02301,4.222603 -9.737,2.8078 -8.673004,8.415901c1.300995,4.960396 -4.337006,4.415001 -7.218994,5.278099c0.705994,5.074997 -6.320007,5.066803 -6.098999,9.739998c-0.166992,2.104301 -0.007996,7.068901 1.954987,2.671501c2.924011,-3.090698 3.868011,-8.269196 8.502014,-9.411697c0.744995,3.581497 -2.992004,8.1987 -6.563995,9.936699c-3.238007,3.219398 -7.531006,4.462402 -11.042999,7.229401c-2.509003,3.946999 -7.654999,3.312996 -11.338013,1.653999c-3.970001,-1.485001 -7.764984,1.009003 -11.152008,2.769997c-4.231995,0.258003 -5.92099,4.336006 -9.078979,6.408005c-3.684021,1.424995 -6.27002,4.921997 -9.651001,6.350998c-1.865021,-3.075996 3.039001,-8.721001 -1.069,-10.510002c-2.277008,3.520004 -6.681,2.936005 -10.399017,2.906006c-3.225983,0.238998 -7.475983,-1 -9.542999,2.298996c1.770996,1.711998 2.056,4.456001 -1.428986,3.710999c-4.80899,-3.197998 -8.089996,2.457001 -12.333008,3.764c-3.402008,2.445 -10.242004,0.831001 -10.501984,6.524002c-2.039001,0.729004 -5.607025,-5.458 -7.286011,-0.457001c-2.813995,1.940002 -10.459991,-0.263 -8.955017,5.636002c-0.880981,2.794998 -6.152985,0.438004 -7.638977,3.75c-3.993011,0.673996 -7.825012,1.794998 -10.755005,4.824005c-3.653015,2.895996 -8.658997,1.612 -12.713013,3.666c-2.983978,0.778 -7.684998,-3.470001 -7.638977,1.937988c0.763,5.253006 -5.25,2.888 -7.921021,4.66301c-2.738983,2.530991 -5.955994,5.619995 -5.052002,9.750992c2.979004,2.094009 5.27002,5.78801 8.165009,7.416c3.875,-0.306 7.412994,-2.250992 9.730988,-5.369995c3.107025,-2.457001 8.391022,2.845001 10.751007,-2.152008c2.377991,-2.80899 5.904999,-3.269989 7.173004,0.643005c3.507996,4.494003 -5.631989,2.947006 -7.940002,4.337997c-3.010986,3.427002 -9.015991,0.505997 -10.345001,6.17601c-0.803009,2.396988 -5.316986,4.362 -4.824005,6.40799c4.321014,-0.817001 7.912018,-3.748001 11.955017,-5.388992c4.221985,-1.712006 8.475983,-4.274002 13.052002,-4.567001c-1.794006,3.500992 -1.223022,9.132004 -5.774994,10.787003c-2.48703,1.328995 -9.994019,2.098999 -7.88501,6.076996c2.945984,2.434006 5.428009,5.362 7.92099,8.031998c4.652008,0.570007 8.212006,-2.994995 11.774994,-5.328003c2.036011,-2.834 2.147003,-7.889999 6.378998,-8.37999c3.110016,0.355988 8.545013,-3.184006 10.239014,0.141998c-1.088013,5.013992 6.080994,3.741989 6.938995,0.248001c4.563995,-0.549011 9.505005,-1.490997 12.873016,-4.973999c-0.486023,-3.198013 -1.72702,-8.225006 3.28598,-7.953003c2.835022,-1.943008 7.061005,-2.236008 10.154999,-1.249008c-0.825989,4.005005 -3.468994,8.274002 -7.61499,9.372009c-5.123016,-0.201004 -1.341003,7.231003 1.64801,3.190002c3.190979,-3.767014 8.617981,-2.001007 12.787994,-3.77301c3.425995,-1.578995 7.173004,-1.666992 10.747009,-2.520996c3.266998,-1.561005 0.863983,-4.653 -1.85202,-2.826996c-2.82901,1.046997 -6.105988,2.05899 -6.35199,-2.156998c-0.041016,-3.907013 -7.997009,-0.480011 -7.255005,-2.359009c4.308014,-2.184998 8.946014,-3.513 13.372009,-5.404999c4.828003,-0.873001 8.412994,-4.623993 13.046997,-5.964005c3.208008,-1.807999 4.382996,-7.052002 8.928986,-5.870987c4.315002,-0.702011 7.83902,-4.571014 12.549011,-3.502014c1.723999,-0.190994 6.213989,1.672012 2.138,1.73201c-3.084015,-0.673004 -9.544006,2.580002 -4.666016,5.33699c4.031006,0.389008 8.180023,-1.398987 11.540009,-3.515991c4.119995,-1.775009 8.368011,-3.212997 12.886017,-3.306c4.856995,-0.813995 4.161987,-6.100006 2.138977,-9.10701c0.84201,-4.660995 6.822021,-5.593994 10.818024,-5.451996c4.453979,1.139999 7.667999,5.335999 11.142975,8.249008c2.304016,3.718994 7.074005,4.291992 10.940002,5.123993c4.619019,-1.404999 7.264008,2.011002 8.576019,6.029999c1.957977,2.531006 8.834015,2.417999 6.556,7.029999c-3.027008,-0.325989 -9.973022,0.865005 -5.127014,4.637009c2.726013,1.453995 9.215027,2.414001 9.044983,-2.303009c-0.286987,-2.496994 -0.81897,-4.830994 1.222046,-6.61499c-0.315002,-2.751007 -9.899017,-4.837997 -4.155029,-7.381012c3.901001,-0.87999 8.892029,-7.149994 4.075012,-9.566986c-2.465027,0.702988 -6.238037,-0.028 -3.453003,-3.036011c-0.890015,-4.201996 -5.916992,1.953003 -7.315002,-2.42099c-1.234009,-2.91301 2.001007,-8.049004 -3.45401,-6.78801c-2.044983,0.380005 -4.341003,-0.604996 -1.123993,-1.704994c3.949005,-0.471001 5.584991,-4.464005 1.593994,-6.534004c-3.389984,-0.106995 -3.906006,-2.807999 -1.177002,-4.628998c3.394012,-1.812004 8.182983,-5.278999 3.291016,-8.687004c-2.52301,-1.970993 -0.854004,-5.8489 1.962982,-3.090996c3.157013,2.774002 7.196991,3.696999 9.922028,6.614998c3.001953,0.731003 4.162964,-4.544998 6.55896,-0.154999c1.111023,3.440002 6.085999,-1.588997 4.577026,3.286003c-1.093018,4.235001 1.580994,8.041 3.012024,11.813995c-2.40802,-0.812996 -5.378052,-5.438995 -8.130005,-5.628998c-1.194031,3.214996 -1.457031,7.828003 3.167969,7.685997c4.05603,0.275002 7.369995,1.656006 8.561035,5.907005c1.536987,4.076004 -3.421021,7.821991 0.625,11.395004c4.612976,1.871994 4.703979,7.797989 9.138,9.780991c2.701965,1.158997 6.065979,-2.030991 6.112976,2.585007c3.466003,2.869003 5.46698,7.325989 9.02002,9.893997c2.932983,1.852005 6.125977,2.955994 8.914001,0.265991c3.664978,0.28801 4.586975,5.491013 8.54895,6.200012c1.490051,3.131989 3.389038,6.600998 7.450012,6.088989c4.186035,-0.772995 6.137024,3.756012 9.539001,4.208008c2.429016,-1.431 1.864014,-4.436996 -0.442017,-5.421005c1.830017,-4.849991 5.545044,6.153 6.952026,-0.030991c4.669983,0.801987 -1.630005,6.959 4.195984,6.487c3.049988,1.539001 7.66803,-0.039001 7.754028,4.733994c1.799988,2.263 0.334961,7.289001 4.773987,5.815002c2.819031,0.391998 3.473999,5.623001 7.41803,4.154999c3.382996,-1.904007 7.139954,-2.406006 10.960999,-2.233994c3.006958,-2.030014 6.713989,4.051987 8.537964,1.722c-2.500977,-3.550003 -6.231018,-6.408005 -9.656006,-9.129013c-4.401978,-1.927994 -3.343994,-9.251999 -9.536987,-8.692993c-2.664001,-0.233994 -6.166016,-3.307007 -5.648987,-5.466003c3.617004,2.469009 8.02301,2.334 11.799011,4.28801c3.047974,3.034988 5.985962,6.525986 8.941956,9.688995c2.546021,2.869003 9.230042,-0.042007 8.936035,5.589005c-1.723999,4.126999 1.640015,10.397995 6.539978,8.812988c4.379028,-1.322998 8.984009,2.372009 13.145996,-0.30899c2.166016,-2.173004 6.218018,-1.882004 6.898987,1.514999c-4.063965,-0.227997 -7.770996,1.283997 -11.643982,2.026001c-3.549011,0.216995 -7.047974,-3.244003 -10.502014,-0.94101c-1.065979,4.942001 4.66803,7.421005 8.862,6.55101c3.321045,-0.167999 6.643005,0.349991 9.608032,1.876999c3.802979,0.056 6.84198,3.207001 10.757996,2.724991c5.705017,0.197006 10.312988,4.109009 15.898987,4.790009c2.528992,0.207001 8.419983,2.369995 8.822998,-0.865005c-3.784973,-2.804993 -8.752991,-3.772995 -12.958984,-5.975998c-5.312988,-1.425003 1.104004,-8.132004 -3.458984,-10.509995c-2.627014,-2.119003 -6.392029,6.975998 -5.725037,1.789993c0.778992,-1.966003 2.822021,-4.688995 -0.929993,-4.537994c-3.072998,0.549988 -5.122009,-0.679001 -6.58197,-3.378998c-4.041016,-0.348007 -8.194031,-0.175003 -12.265991,-0.034012c-2.672058,-0.714996 -2.504028,1.910004 -3.232056,2.970001c-1.780945,-2.166992 -5.375977,-3.007996 -6.752991,-4.875992c2.457031,-1.572006 5.855042,-4.444 1.644043,-6.455002c-1.694031,-2.169006 4.765991,-2.087006 2.20697,-4.988998c-1.927979,-3.522003 -2.869995,-9.667007 -7.833008,-9.800003c-5.039978,-1.040009 3.673035,-2.128006 5.415039,-1.124008c4.526001,-0.599991 8.450989,4.011002 12.869995,1.933014c2.945984,-2.807007 3.68396,-8.668015 8.559998,-8.701004c3.891968,-0.222 7.492004,-1.333008 10.255981,-4.061996c0.551025,-1.574005 -1.919983,-4.050003 1.364014,-2.935013c4.617981,1.561005 0.841003,-2.912994 -1.288025,-3.688995c-2.026978,-3.729996 -5.888,-5.761993 -8.487976,-9.002991c-3.737,-0.984009 -5.554016,-3.910004 -6.983032,-7.365005c-3.865967,-3.078995 -8.440002,0.843002 -12.386963,1.854004c-3.244019,1.457001 -7.04303,1.473999 -8.360046,5.33699c-2.665955,1.199005 -8.838989,1.195007 -9.612,-1.138992c2.200012,-0.173004 3.953003,-2.123001 0.669006,-2.561005c-3.143982,1.018997 -9.216003,-1.589996 -9.973999,2.878006c0.812012,4.421997 -5.003967,4.159988 -7.917969,5.105988c-3.879028,-0.095993 -3.843018,8.272003 -8.527039,4.924011c-3.311951,-2.361008 -7.000977,-6.569 -11.032959,-2.751007c-3.632019,2.899002 -8.085999,3.328003 -12.549988,3.484009c-4.015015,1.240997 -5.479004,-3.509003 -8.132019,-5.040009c-5.122986,-0.030991 -5.567017,5.852997 -1.062012,7.360001c2.382019,-2.315994 4.772034,-1.944992 5.414978,1.563004c-0.145996,3.505005 8.096008,5.151993 3.936035,7.938004c-3.488037,-2.442001 -7.205017,-5.431 -11.307007,-7.421005c-4.078003,-1.649994 -6.833008,-5.192993 -10.176025,-7.884995c-2.299988,-3.889008 -5.765991,-6.531006 -9.646973,-8.541c-1.838989,-3.497009 -4.015015,-6.906006 -6.669983,-9.840012c-3.045044,-2.770996 -0.53302,-7.637993 -2.019043,-11.160995c-0.279968,-2.562996 -6.597961,-4.584999 -1.876953,-6.334999c2.656982,-1.165001 8.098999,-5.772995 8.294983,0.021004c0.242004,3.998001 -5.263,6.130997 -3.257019,10.487999c0.479004,1.674995 1.888,6.885994 1.523987,2.390999c-0.804993,-3.174004 1.967041,-7.309998 4.75,-7.880997c0.105042,4.181999 1.610046,7.970993 3.670044,11.544998c1.084961,4.050995 2.177979,8.281998 5.074951,11.429001c1.858032,3.841003 6.846008,0.127991 7.192017,-2.033997c-2.289001,-3.154999 -6.562988,-4.645004 -7.950989,-8.425003c1.140991,-4.772003 -3.366028,-6.27301 -6.122986,-8.805c-0.902039,-4.145004 2.218018,-7.612999 4.997986,-10.212006c1.61499,-4.118996 -0.859009,-8.335999 -2.927979,-11.796997c-1.170044,-4.316902 -5.184998,-6.607399 -6.769043,-10.609299c-1.177002,-2.707298 -5.886963,-5.122299 -1.56897,-7.575302c-0.262024,-3.819901 -4.536011,-6.666397 -3.690002,-11.001099c-3.614014,-1.977898 -7.252991,-3.766899 -8.35498,-8.142097c-3.453003,-1.524406 -7.747009,-1.362106 -9.79303,-5.196201c-1.286987,-1.437702 -1.065979,-3.467602 -1.909973,-5.157001l0,0zm-171.073029,45.075996c-1.511993,1.841003 -7.153992,6.158005 -10.878998,7.114006c-8.946991,4.649994 -19.988007,10.268997 -24.531006,11.274994c2.374023,-0.278999 5.167023,-0.078995 6.532013,2.178001c1.375,1.912003 2.123993,4.464005 4.487,5.448006c2.074005,1.038994 4.609009,1.958992 6.815002,0.745995c1.980011,-1.005997 3.79599,-2.331001 5.576996,-3.641998c1.666992,-1.623001 2.994995,-3.566002 3.971008,-5.666c1.386993,-2.454002 4.419983,-3.425003 7.096985,-2.960999c2.992004,0.375999 6.602997,-0.081001 8.355011,-2.853004c1.234985,-1.521996 4.473999,-1.372993 4.139008,-3.965996c-0.136017,-2.734001 3.029999,-3.529999 4.98999,-4.506004c1.962006,-1.655998 3.92099,0.028 5.632996,1.055c2.309998,0.5 3.190002,-2.189995 4.126007,-3.719994c1.678009,-1.492599 4.122986,-1.153999 6.201996,-1.437004c3.343994,-0.103699 6.928009,0.666 10.001007,-1.068901c3.266998,-1.415794 4.924988,-4.723999 6.514984,-7.692101c0.973999,-2.068199 2.390015,-4.136894 2.041016,-6.5401c-0.372009,-2.7677 1.419983,-5.100594 2.519989,-7.481697c2.652008,-3.692902 3.626007,-8.249397 5.899994,-12.151604c1.013,-2.165096 1.912018,-4.380997 2.804016,-6.598396c-2.251007,0.7104 -3.897003,2.564899 -6.088013,3.4277c-3.010986,1.3904 -5.919983,2.984501 -8.612,4.926098c-2.77298,1.705704 -5.138,3.986504 -6.971008,6.673103c-2.134979,2.994499 -3.898987,6.315697 -6.791992,8.687401c-2.326996,2.266098 -5.259979,3.751595 -7.712982,5.843895c-2.205017,2.057899 -4.345001,4.427406 -7.33902,5.299904c-5.028992,2.342102 -9.565002,6.320801 -15.337006,6.621597c-1.205994,0.288101 -2.202972,0.8731 -3.442993,0.988098zm115.522003,44.222c0.412018,5.466003 -11.619995,6.947998 -4.983002,12.587006c3.494019,2.593002 14.446014,-7.222 11.427002,1.042999c-2.669983,6.951996 -11.494995,5.158997 -16.826996,8.459991c-6.30899,3.438004 -12.45401,-0.674988 -18.552002,-2.242996c-3.889008,0.178009 -15.049011,-6.444992 -6.720001,-7.96199c7.670013,0.214996 14.76001,-2.893005 20.221008,-7.685013c4.377991,-0.58699 2.914001,-7.470993 8.873993,-5.965988c2.371002,0.092987 5.208008,-0.839005 6.559998,1.765991zm20.528992,21.249008c-5.474976,1.524994 -11.201996,-5.667007 -14.256989,1.131989c-6.572998,2.373001 -14.072998,9.694 -20.852997,4.128006c-3.335999,3.339005 -15.79599,2.720001 -9.919006,9.938995c5.61499,3.654999 14.596008,-0.526993 18.705017,6.203003c4.340973,5.729996 12.694977,5.807999 19.278992,6.098007c5.826996,0.537994 11.341003,3.574997 16.773987,1.259995c2.613037,4.703003 4.68103,-0.141998 1.229004,-2.085999c0.75,-4.184006 7.51001,4.686996 11.142029,1.834c4.731995,-1.037003 17.502991,3.029007 13.811951,-5.554001c-4.699951,-4.996002 -5.982971,-15.255997 -14.927002,-12.261002c-6.052979,0.363007 -12.575958,-1.319 -17.382965,-4.929993c-1.442017,-1.827011 -1.298004,-4.562012 -3.60202,-5.763zm10.445007,41.778c-6.369995,-2.848007 -13.950989,-3.188004 -19.449005,-7.563004c-6.389984,-2.658005 -13.53299,-0.966995 -20.259003,-1.430008c-4.359985,-1.462997 -9.724976,-6.816986 -14.858002,-3.653c5.438019,2.506012 10.606018,5.025009 13.383026,10.376007c6.665985,1.895004 13.128998,3.787003 18.517975,8.307007c5.712006,1.661987 12.684021,2.769989 18.163025,0.109985c2.996002,-0.734985 5.391998,-2.783997 4.501984,-6.146988zm31.333008,-53.303009c-2.122009,6.514999 4.031006,12.589005 10.25,14.66301c4.468018,3.668991 -4.880005,-2.667007 -6.684998,-2.826004c-2.934021,-2.910004 -13.737,-10.531998 -11.39801,-1.662003c3.983032,4 -5.938965,-2.643005 -8.013977,0.270004c-6.580017,2.310989 -0.031006,10.722992 5.450012,9.780991c7.473999,1.556 13.570984,7.305008 21.362,7.603012c1.16394,2.104996 8.847961,6.37999 4.521973,1.343994c-3.315979,-4.475006 2.028992,-11.354996 -2.908997,-16.216995c-3.669006,-4.932999 -11.78302,-5.572006 -12.578003,-12.956009zm29.172974,29.533005c-4.492981,-1.811996 -16.054993,-2.356003 -8.893005,4.856995c3.008057,3.882004 10.956055,8.501999 11.29303,11.769012c-5.059021,-1.755005 -9.008972,-7.233002 -13.497009,-8.532013c1.139038,2.610001 3.851013,5.659012 -0.787964,2.710999c-6.046021,-1.195999 0.805969,5.415009 2.845947,6.780014c6.092041,4.457993 12.607056,8.319 19.467041,11.319c2.695984,2.326996 10.316956,4.916992 3.440979,0.980988c-3.242004,-2.942001 -11.765991,-5.766998 -10.937988,-9.886002c6.984985,2.737 12.002014,9.493011 19.554993,11.280014c2.64502,2.334991 11.833984,6.315994 8.322021,-0.863007c2.317993,-6.328995 -5.204041,-12.535995 0.48999,-17.190002c-0.791992,-9.813004 -10.75,-5.339996 -15.450989,-1.341003c-3.822021,0.188004 -6.864014,0.960007 -3.242004,4.682007c2.688965,7.128998 15.815979,1.806992 14.691956,11.128998c-2.266968,2.611008 -5.716003,-4.684998 -9.468994,-3.957001c-5.791992,-3.731995 -10.605957,-9.190994 -13.505981,-15.455002c-1.356018,-2.869995 -3.736023,-5.037003 -4.322021,-8.283997zm48.261047,48.261002c-6.738037,0.423004 -4.309998,10.143005 1.440002,5.761993c4.187988,-2.013992 2.467957,-5.179993 -1.440002,-5.761993zm72.390991,-45.020004c-5.817993,-0.151993 -6.549988,9.251007 -12.359009,3.487c-1.84198,-3.638992 -6.098022,-5.759003 -9.138,-8.184998c5.119995,-1.621994 9.025024,3.807999 12.132996,5.779007c1.661987,-4.171005 7.690002,-7.847 9.364014,-1.081009zm-92.453003,-86.459c6.430969,3.051003 15.61499,4.830002 21.947998,4.447998c-2.325989,3.820007 -6.697998,6.953003 -8.369019,11.421005c-7.002991,1.789001 -14.445984,3.102997 -21.273987,4.897995c-2.786011,-1.553993 -3.007996,-5.862 -7.015015,-6.368996c-1.768982,-7.025002 7.367981,-5.267998 7.86499,-11.303001c1.718994,-1.681999 5.445007,-0.925003 6.845032,-3.095001zm141.644958,52.813995c1.490051,0.062012 2.950012,0.246002 5.52002,1.202011c3.205994,0.255997 8.66803,1.539001 11.413025,2.334c-4.442993,0.697998 -10.186035,10.813995 -13.217041,11.125992c-1.003967,-4.397995 -2.875,-10.265991 -3.716003,-14.662003zm-7.773987,39.048004c-3.380981,6.331009 -12.473999,6.38501 -16.596008,12.158997c-6.598999,0.154999 -12.09198,11.757004 -18.211975,3.820007c-3.08197,-4.093994 -6.122009,-8.147003 -2.223022,-12.869003c2.869019,-6.162003 12.128052,0.960999 17.059021,1.175003c5.970032,-0.757004 14.60199,2.287994 15.770996,-5.444c1.465027,-0.529007 2.973022,0.520996 4.200989,1.158997zm18.007996,-12.966003c-0.948975,1.005005 -10.770996,6.481003 -6.177979,-0.108994c1.055969,-3.259995 8.049011,-5.759995 6.177979,0.108994zm-9.724976,-3.240997c-3.65802,0.800003 -7.124023,1.919006 -4.872986,6.591003c2.469971,-1.039001 7.524963,-2.990997 4.872986,-6.591003zm53.302979,15.847c-4.907959,0.729004 -8.721985,-9.022003 -1.86499,-10.136993c8.145996,-0.574997 1.666016,11.365997 10.05603,10.593002c8.437988,3.255997 -3.43103,12.79599 -8.551025,8.546997c-4.794006,-0.727997 -7.346008,-9.82901 -0.359985,-6.48201c2.408997,1.934006 7.753967,3.340012 3.528992,-1.093994c-0.323975,-1.324997 -1.585022,-1.837006 -2.809021,-1.427002zm-42.857971,15.126007c-3.825012,-1.82901 -15.559998,-1.582001 -9.60498,4.444992c4.603943,-0.606995 11.408997,2.751007 14.769958,-0.127991c-0.726013,-2.197006 -3.817993,-2.516998 -5.164978,-4.317001zm-40.697998,10.444992c4.795959,-1.483002 12.990967,-0.700989 18.127014,2.78801c3.375,1.123993 12.700989,5.641998 3.842957,5.494995c-7.445984,-0.190002 -15.057983,-3.102005 -21.258972,-7.035995l-0.710999,-1.247009l0,0zm36.735962,0c1.873047,-3.5 2.189026,1.706009 -2.16095,0c-4.350037,-1.707001 -12.004028,6.699005 -3.888,5.942001c5.652954,-0.966003 4.177002,-2.442993 6.04895,-5.942001zm3.602051,1.800003c-3.114014,6.783997 8.846985,8.408005 13.765991,6.455994c7.523987,0.962006 15.559998,0.335007 22.537964,3.984009c5.653015,2.569992 16.025024,3.069992 18.485046,-3.951996c-1.067017,-8.162003 -12.348999,-4.847 -18.041016,-7.869003c-7.122009,-3.555008 -13.564026,5.776001 -20.085022,-0.214996c-5.739014,-3.154007 -10.200989,5.944 -16.662964,1.595993zm81.034973,-9.003006c-4.716003,3.083008 -17.234985,-0.619995 -10.085999,-6.800995c4.356995,-1.862991 9.687012,2.395996 10.085999,6.800995zm-18.728027,12.965012c-1.803955,7.192993 8.134033,7.192993 12.481018,5.334c-1.281006,-4.606003 -8.32196,-2.236008 -10.200989,-6.518997l-1.033997,0.431992l-1.246033,0.753006l0,0zm57.264038,23.409988c-2.298035,-4.551987 -13.147034,-5.429993 -7.492004,-12.082001c6.312988,-3.381989 12.013,4.552002 17.604004,-0.164993c4.64502,-1.231003 15.544006,0.917999 13.800964,6.921005c-5.630981,4.235001 -12.967957,5.899002 -20.04895,5.847c-1.300049,-0.059998 -2.58905,-0.268997 -3.864014,-0.521011zm-2.880981,-51.862c0.944946,7.871002 -9.410034,7.882004 -14.779053,8.987c-9.35498,0.519012 -13.066956,-9.362991 -18.599976,-14.886993c-4.481018,-2.645996 -14.091003,0.037994 -15.278015,-5.927002c4.718018,-0.673996 8.208008,6.311005 13.559021,2.656998c7.674988,1.13501 15.278015,2.093002 22.852966,3.046997c3.609009,3.153 10.425049,0.843002 12.245056,6.123001zm-51.862,-3.96199c-2.950012,1.404999 -5.084045,-2.729004 -6.123047,-5.042007c-6.484009,0.14801 2.996033,4.827011 3.492004,7.792999c3.184021,2.925003 7.751038,-1.590988 2.631042,-2.750992zm-191.243042,-66.629005c1.023987,3.409996 3.923035,8.508003 8.379028,10.409996c-1.841003,2.259003 -7.015991,1.470001 -4.416992,6.518005c-4.445007,6.869003 -11.486023,-0.345993 -16.453003,-2.682007c-2.276001,0.858002 4.906982,6.824005 6.467957,9.185013c3.122009,6.750992 -6.328003,-0.036011 -8.022949,-2.181c-3.248047,-3.320999 -9.143005,-3.516006 -6.802002,-9.531006c-0.828003,-5.306 8.03595,-2.061005 7.274963,-8.343002c1.551025,-5.907997 9.137024,-5.272995 13.572998,-3.375999zm-402.292984,43.579002c-1.206009,4.578995 -5.126007,2.419006 -7.643005,0.421997c-5.60199,2.464996 -11.477997,4.214996 -16.487991,-0.781998c-7.344009,-4.011002 -15.407013,0.975006 -22.834,2.419998c-3.112,2.110001 -15.229004,1.253006 -7.033005,-2.472992c6.789993,-2.358002 14.414993,-1.938004 20.748993,-5.755005c8.296005,1.022003 15.791,-5.115005 24.031006,-1.796997c2.895004,3.213989 5.656998,5.019989 9.218002,7.964996zm-60.867004,17.647995c-1.065002,0.506012 -15.765991,0.253006 -7.923004,-3.241989c2.722,-0.022003 8.334,-1.251007 7.923004,3.241989zm257.871994,-4.321991c-1.260986,1.897995 -9.850983,8.778 -7.923981,0.360001c1.431,-2.078003 5.802979,-1.083008 7.923981,-0.360001zm-38.536987,18.007996c-2.873993,0.606995 -4.682007,10.651993 -8.644012,4.322006c-5.294983,-5.470001 5.817017,-7.660004 8.644012,-4.322006zm68.069,-170.3538c-0.382996,0.766199 -0.360016,3.851999 -0.360016,5.762499c0,1.636501 -0.359985,3.0611 -0.359985,5.042103c0,0.952099 -2.09201,2.022797 -2.520996,2.881298c-0.723022,1.4468 -1.072998,2.4916 -1.44101,3.9617c-0.333008,1.3344 -0.359985,3.216599 -0.359985,5.042099c0,2.340801 -0.444,3.049 -1.080017,4.321899c-0.723999,1.447601 -1.415009,2.0578 -1.800995,3.601601c-0.376007,1.504601 -1.442993,2.1688 -1.800995,3.601501c-0.333008,1.334396 -0.360016,3.216698 -0.360016,5.042198c0,1.800804 0,3.601601 0,5.402397c0,2.377007 -0.688995,2.458405 -1.440979,3.9617c-0.768005,1.536705 -1.080017,2.119904 -1.080017,4.3218c0,1.720406 0.06601,3.866806 0.360016,5.042206c0.427979,1.712097 0.375,3.660599 0.720001,5.042198c0.548004,2.189102 -0.404999,3.286301 -1.440002,4.3218c-0.897003,0.896301 -0.818024,3.270798 -1.080994,4.3218c-0.489014,1.955002 -0.347015,2.890999 1.080994,3.961998c1.593994,1.195999 2.272003,1.025002 3.600983,0.360001c0.347015,-0.172997 0,-4.82 0,-5.402c0,-1.630203 -0.720001,-2.772102 -0.720001,-4.682396c0,-1.397903 -0.359985,-3.399803 -0.359985,-5.042206c0,-2.315994 0.691986,-2.768196 1.079987,-4.3218c0.411011,-1.643898 0.990021,-2.158394 1.44101,-3.9617c0.319,-1.275299 1.130005,-2.721199 1.44101,-3.9617c0.391998,-1.570595 0,-3.773895 0,-5.402397c0,-1.1036 1.144989,-2.782196 1.440002,-3.9617c0.379974,-1.518799 -0.118011,-4.0756 -0.360016,-5.042198c-0.394989,-1.581902 -0.359985,-3.102001 -0.359985,-5.042202c0,-2.390301 1.280975,-4.1422 2.16098,-6.122601c0.582001,-1.309597 1.348999,-2.429798 2.161011,-3.241398c0.777008,-0.777199 1.079987,-2.842602 1.079987,-4.321899c0,-2.380302 0.360016,-2.8806 1.081024,-4.3218c0.699982,-1.400002 1.451996,-2.568501 1.799988,-3.9617c0.363007,-1.451702 0.364014,-3.2262 0,-4.681999c-0.253998,-1.019001 -1.487,-1.901102 -2.520996,-2.521101zm7.923981,21.609301c-0.395996,-1.584103 3.565002,1.2971 3.961029,2.881199c0.405975,1.622299 0.324982,3.383301 0,4.681999c-0.330017,1.3228 -1.65802,2.237499 -2.160004,3.241501c-1.470001,2.939503 -2.753021,4.785702 -3.60202,6.4828c-0.526978,1.0532 -1.825989,2.186501 -2.520996,2.881203c-0.55899,0.559097 -1.259003,3.233597 -1.44101,3.9617c-0.544983,2.180397 -2.240997,1.279396 -2.880981,0c-0.477997,-0.956001 1.394989,-3.196205 1.800995,-3.601501c0.625,-0.625298 1.440002,-2.879799 1.800995,-3.601601c0.697021,-1.395203 1.147003,-2.295502 1.800018,-3.601501c0.634003,-1.267799 1.449982,-2.1954 1.800995,-3.601601c0.376007,-1.502399 1.257996,-2.516697 1.800995,-3.601597c0.786987,-1.573803 -0.360016,-4.6329 -0.360016,-6.122601l0,0zm194.123016,109.127495c-5.929993,-3.669998 -14.700012,5.313004 -3.950989,5.223999c4.466003,2.428009 8.770996,-1.603989 3.950989,-5.223999zm-138.658997,-109.127495c-2.375,7.210098 -25.886017,10.780499 -13.149994,18.358902c5.878998,1.095894 5.105988,-7.442902 8.880981,-1.258606c5.784027,1.2817 12.875031,-10.695797 12.995026,-0.7957c7.310974,5.586403 17.156006,-6.565395 4.873962,-6.883797c-5.838989,0.665001 -15.716003,-1.104301 -5.536987,-5.429199c0.257996,-3.732101 -5.960999,-2.185001 -8.062988,-3.9916l0,0zm-18.368011,33.4944c-11.541992,-0.794601 -0.664001,13.983597 2.183014,2.0504c5.385986,10.644997 10.535004,-9.123703 0.954987,-3.335304c0.024994,2.672104 -1.862,2.500206 -3.138,1.284904zm17.287018,-5.042099c-2.966003,-11.388901 22.370972,-5.062698 7.623962,0.681702c-6.178955,1.972298 -9.992004,10.967598 -0.518982,5.420494c6.298035,-1.727196 16.236023,-0.038696 9.700989,-5.682999c16.882019,-2.0569 1.083008,9.176201 -4.566956,11.368103c-6.81604,1.630196 -8.25,2.196602 -0.966003,5.432999c-1.541016,3.643898 -9.460999,3.934898 -6.795044,-1.516304c-4.722961,-2.880898 -16.724976,10.051201 -12.040985,-0.937698c5.631012,-2.508301 6.315033,-9.467796 7.563019,-14.766296zm20.169006,35.295197c0.510986,3.175003 3.712952,7.259003 5.401978,3.459999c0.765991,5.247002 6.648987,3.047005 1.867981,7.541c0.920044,1.934006 -1.867981,3.803009 0.199036,8.044006c-5.608032,6.438995 4.690979,5.769989 3.589966,0.031998c3.950012,7.270996 -0.411987,-5.341995 6.58905,0.731995c2.372986,-6.147003 -8.747009,-5.574997 -5.763,-12.605995c-5.495056,-1.041 -5.899048,-16.153999 -11.88501,-7.203003zm-81.755005,7.923004c-11.993011,1.524994 3.056,10.398003 0,0zm-116.331024,40.338005c6.462006,-1.768005 3.890015,9.750992 11.367004,2.875992c7.416016,-2.134003 18.015015,-3.335007 18.166016,-11.880005c7.686981,0.164001 25.164978,-10.293991 21.98999,-13.541c-10.075989,4.159012 -19.541992,10.715012 -30.942993,9.554001c-10.882019,9.828003 -21.781006,-5.362991 -31.739014,4.087997c3.348999,2.076004 21.037018,-2.403992 10.794006,5.771011l0.041016,1.065994l0.323975,2.06601l0,0z" stroke-width="1px" stroke-opacity="0.660714" fill-rule="evenodd" fill="#f6f6f6" id="path2678"/>
  <path d="m464.677002,25.571199c4.203003,1.3563 10.42099,2.4818 12.291992,6.6434c0.127991,3.004299 -0.979004,5.8414 -2.104004,8.529202c1.19101,3.444798 6.632019,5.6619 4.619995,10.3927c-1.064972,4.666199 -7.899994,-1.798302 -8.798981,4.101898c-1.266998,4.636501 -0.522003,9.638302 -2.173004,14.224804c-1.022003,5.238197 1.528992,11.524696 -2.295013,15.977798c-2.695984,2.734497 -8.22998,3.160095 -7.115997,8.366898c1.582001,4.403297 -1.724976,7.708099 -5.779999,8.980103c-2.287994,2.576996 -9.414001,4.872002 -5.848999,-0.661003c2.406006,-2.758797 8.480011,-5.647301 4.554016,-9.913696c-2.399994,-3.9142 5.243988,-3.371902 5.794983,-7.218399c2.494995,-1.078003 3.802002,-6.947807 -0.347992,-4.950302c-3.126007,3.275497 -6.674011,6.228798 -10.299988,8.910896c-1.549011,4.400505 -4.601013,7.519005 -8.176025,10.280106c-2.188995,3.482399 0.119019,11.0364 -6.286987,10.302399c-4.575989,-0.080002 -6.777008,4.498001 -10.085999,6.768997c-4.306,2.182999 -2.714996,-3.639 -2.533997,-5.669998c-3.94101,-0.896004 -1.875,-7.32 1.238007,-6.551003c0.472992,3.174004 3.826996,2.877998 4.441986,-0.294998c2.468018,-2.904999 3.785004,-7.1633 7.679993,-8.555199c3.538025,-1.560303 6.438019,-4.157799 9.923004,-5.824104c4.315002,-2.529495 6.572998,-7.165398 9.5,-10.970795c2.891998,-2.4842 7.136017,-3.9384 8.151001,-8.0476c1.529999,-4.150505 2.326019,-8.582504 4.414001,-12.486202c0.184998,-3.1166 -3.096008,-5.911301 -0.31601,-9.036102c1.893005,-4.222198 1.522003,-9.772598 -2.172974,-12.928898c-2.338013,-1.924801 -4.746002,-6.9972 -0.186005,-7.701601c1.11499,-0.366899 2.272003,-1.3673 1.912994,-2.6693zm-71.597015,87.865797c-3.835999,1.223007 -3.322998,6.976006 -8.460999,5.857002c-4.921997,2.632004 -9.251984,7.460999 -15.164978,7.534004c-5.848022,-1.100006 -9.499023,4.410004 -14.933014,4.994003c-4.406982,2.141998 -5.748993,7.664993 -11.627991,7.164993c-5.623993,2.223007 -10.600006,5.688995 -16.545013,7.055008c-4.652985,1.445999 -10.36499,-0.881012 -14.302979,2.690994c-1.388,5.953003 -8.978027,4.602997 -12.606018,9.003998c-3.316986,4.779007 0.778992,9.917999 1.264008,14.949997c-1.942017,5.197998 -8.101013,1.259003 -11.932007,2.216003c-4.036987,3.522003 -5.967987,8.936996 -9.123993,13.309998c-5.290009,3.695007 -6.123016,-5.86499 -0.376007,-5.265991c6.183014,-2.126007 6.894012,-9.987 13.153992,-12.014999c7.259003,-0.440002 4.445007,-7.795013 3.053009,-12.115005c2.269012,-4.958008 10.093994,-3.889999 12.244995,-9.363998c0.408997,-4.714005 2.789001,-9.397003 8.28302,-6.483002c5.15799,-0.820999 8.571991,-6.274994 14.242981,-5.104996c5.90802,-1.040009 11.113007,-4.589005 16.574005,-7.062012c5.541016,-3.232994 12.239014,-3.731995 17.378998,-7.797997c5.194,-1.062996 9.958008,-3.314995 14.657013,-5.878998c4.554993,-1.116997 4.177002,-6.509003 2.687988,-9.645996c2.022003,-3.268005 7.77301,-1.394005 3.609009,1.995995c-1.925995,3.649002 2.488007,7.596001 5.569,3.792999c0.790009,-0.199997 1.580994,0.045006 2.35498,0.167999zm-126.414978,20.889008c0.47998,2.261993 1.505981,4.593002 0.815002,6.923996c-1.436005,1.942993 -4.134003,1.604996 -6.229004,1.306c-1.955017,-0.533997 -5.852005,1.865997 -3.35202,3.681c1.996002,0.718002 4.284027,0.763 6.373016,0.462006c2.128998,-0.947998 3.881012,1.078995 2.688995,3.036987c-0.699005,1.861008 -0.803986,4.277008 -2.631989,5.443008c-2.558014,0.867996 -5.311005,0.130997 -7.950012,0.401993c-4.582001,0.258011 -9.168991,0.505005 -13.759003,0.326004c-2.871994,-0.013 -5.753998,0.311996 -8.612991,0.291c-2.345001,-0.619003 -3.216003,-3.141998 -4.862,-4.626999c-1.649002,-1.110992 -4.13501,-0.947006 -5.235001,-2.834c-0.049011,-2.149994 2.481995,-2.485001 4.039001,-3.037003c2.513992,-1.01799 5.222,-1.410995 7.761993,-2.326004c1.783997,-0.75 3.380997,-1.963989 5.354004,-2.185989c1.707993,-0.320999 3.449997,-0.761002 4.849991,-1.839005c4.98201,-2.550995 10.638016,-3.153992 16.100998,-3.917999c1.582001,-0.065994 3.424011,0.115997 4.649017,-1.104996zm264.71402,-6.482002c1.929993,0.545006 4.209961,1.357002 5.076965,3.329002c0.617981,1.632996 0.046997,3.804993 -2.096985,3.54599c-1.182983,0.095001 -3.694031,0.199005 -2.286011,1.965012c0.771973,1.332993 3.164978,3.86499 0.807983,4.865997c-1.81897,0.843002 -3.828979,0.391998 -5.60199,-0.320007c-1.792969,-0.408997 -4.005005,-1.15799 -4.435974,-3.200989c-0.281006,-1.971008 -1.263,-3.699005 -3.424011,-3.920013c-1.369019,-0.745987 -3.687012,-1.773987 -2.80603,-3.743988c0.684021,-2.011002 -1.91095,-2.616005 -2.964966,-3.823006c-1.460999,-0.941002 -2.09201,-2.651001 -2.90802,-4.103996c-0.393005,-1.719002 -0.113983,-3.648003 -1.332001,-5.112007c-1.069,-1.473 -1.707977,-3.413994 -0.326996,-4.931999c1.003021,-1.412994 2.567993,-2.912994 1.878021,-4.823997c-0.364014,-1.755997 -1.54303,-3.379997 -1.545013,-5.150002c0.55899,-2.565399 3.286011,-0.362 4.591003,0.359001c1.958008,0.974998 1.810974,3.745003 3.812988,4.674004c1.750977,0.874001 2.590027,2.879997 4.447998,3.602997c1.501038,1.079002 2.525024,2.822998 2.973022,4.595001c0.406006,1.998001 -0.630005,4.316002 0.828003,6.035995c1.310974,1.833 3.383972,2.922005 4.784973,4.648003c0.153015,0.511002 0.325012,1.014999 0.527039,1.509003zm-18.007019,-14.407005c1.671997,1.489006 2.893005,3.458 3.223999,5.694c0.511963,2.044006 0.867981,4.194 2.184021,5.912003c0.635986,1.518997 1.82196,2.654999 3.070984,3.677002c1.368958,-0.936005 0.078979,-3.582001 0.661011,-5.139c0.425964,-0.785004 0.381958,-3.647003 -0.530029,-1.662003c-0.359009,1.550003 -2.38501,3.5 -3.175964,1.099998c-0.985046,-1.710999 -0.950012,-3.698997 -1.13501,-5.593994c-0.369995,-2.152 -2.492004,-2.826004 -4.087036,-3.831001l-0.211975,-0.157005l0,0zm99.763,37.817001c-9.47998,0.102997 -20.223999,-0.569 -12.752991,-12.362991c-1.804993,-15.594009 -9.223022,4.585999 -7.598999,9.472992c-13.299011,-0.684998 -4.46405,-20.074997 4.86499,-20.880997c-1.125,-11.355003 26.612976,1.533997 11.752991,5.828995c-7.757996,5.253998 9.135986,10.695007 3.734009,17.942001zm-18.367981,-50.061996c-5.067017,-9.855103 -18.133057,1.178001 -24.491028,-9.724098c-4.484009,-9.511002 -7.104004,-0.617706 -0.719971,3.241394c7.572998,1.989204 6.737976,17.668701 13.768982,15.338699c0.292969,-9.813995 8.987,-1.539993 11.442017,-8.855995zm64.106995,29.173004c0.169006,6.985001 -16.239014,12.095001 -12.965027,0c4.650024,1.821991 9.246033,-2.897003 12.965027,0zm-9.004028,-3.242004c-12.119995,3.016998 -0.033997,-11.404999 0,0zm-9.723999,2.160995c-1.628967,-4.589996 -9.742004,-4.164993 -4.682007,2.161011c1.354004,1.552994 5.794006,0.307999 4.682007,-2.161011zm-3.240967,10.805008c-3.548035,1.888 -5.514038,6.21199 -7.563049,7.562988c3.248047,2.425003 7.657043,-5.520996 7.563049,-7.562988zm72.390991,20.528992c-12.257996,0.695999 3.709961,17.354004 -5.424011,17.983002c-1.492004,-6.505005 -8.424988,-21.037003 5.424011,-17.983002zm19.448975,-3.60199c0.403992,10.901993 -14.237,16.54599 -15.080994,26.901001c6.835022,2.434998 8.719971,-15.991013 12.84198,-12.102005c-1.07196,-4.572006 11.453003,-13.893997 2.239014,-14.798996zm6.843018,-0.360001c1.453003,6.981995 -6.940002,13.939987 -9.231018,20.809998c-7.080994,2.891998 4.893982,10.48999 3.108032,0.078995c1.367981,-8.112 6.467957,-9.849991 4.888,-1.337006c3.092957,-3.257996 3.646973,-25.193985 7.648987,-12.51799c6.464966,-5.053009 -0.644043,-9.673004 -6.414001,-7.033997zm5.041992,10.804993c-2.986023,4.733002 1.778992,13.169006 2.648987,3.028c-0.149963,-1.466995 -1.432983,-2.442993 -2.648987,-3.028zm34.575012,14.406006c-1.538025,9.778992 10.755005,-1.518005 13.816956,7.672989c1.588013,-7.306992 -7.652954,-11.190994 -13.816956,-7.672989zm59.065002,48.981003c6.070984,-8.463013 -10.802002,-9.025009 -0.491028,-15.924011c8.392029,-0.237991 16.229004,3.391006 10.408997,10.318008c1.049988,6.651993 13.260986,7.550995 6.585999,15.453003c-6.458984,-0.630005 -5.875977,-6.279007 -9.300964,-10.567001c-0.914001,-9.348007 -3.130005,-2.600006 -3.626038,2.212997c-1.313965,0.529999 -2.627991,-1.011002 -3.576965,-1.492996zm-399.052032,-33.134003c-0.613983,-6.602005 -1.485992,-14.246002 -7.843994,-17.953003c-1.475983,-18.453003 12.138,4.634995 16.667999,10.028992c12.652008,2.444 11.208008,16.673004 25.391022,20.169006c9.526001,8.626007 22.541992,10.570999 33.987,13.272995c13.129974,4.520004 18.532013,2.025009 12.472992,-11.832001c7.697021,-12.634995 27.45697,-3.205994 34.213989,6.48201c12.577026,4.179993 0.231018,8.761002 -4.682007,1.440994c-5.656982,-10.979996 -7.789001,-0.712997 -6.325989,5.524002c-18.619019,4.858002 2.309998,7.546005 9.867004,9.195007c-5.73999,-10.515015 10.096008,-7.929001 17.348022,-0.313004c16.621948,7.291 -7.575012,-10.923004 3.078979,-13.397003c-0.492981,-8.432007 -27.444031,-13.987 -6.320007,-15.774994c11.340027,1.291 21.869995,10.858994 15.421021,21.69899c-8.014038,16.84201 17.203003,15.809006 10.149963,-0.809998c-8.632996,-11.826004 5.700012,-6.100006 10.798035,-2.266998c2.395996,4.895004 24.30896,7.695999 12.846008,10.617004c-13.334045,-9.943008 1.461975,5.634995 8.049988,6.056c8.093994,9.376999 10.539978,2.822998 16.966003,-3.906006c2.973999,5.901001 13.460999,4.912994 5.701965,-3.248993c0.379028,-15.965012 -18.113953,12.674988 -12.583984,-4.37001c14.684998,-5.752991 -4.765015,-7.987 -5.85199,-16.860992c-2.380981,-13.783997 11.382019,-4.91301 13.133972,2.352997c15.791016,13.041992 -5.963989,-24.285995 7.637024,-9.317993c-1.492981,18.158997 21.195007,3.357986 19.296021,20.223999c12.744995,-1.007004 29.330994,3.770996 43.578979,5.403l-2.900024,1.848999c-12.445984,-0.371002 -25.25,-1.575012 -37.336975,2.175995c-9.971008,2.772003 -19.997986,5.399994 -29.819031,8.466995c-11.067993,7.330002 -24.984985,3.290009 -37.311951,3.215012c-10.861023,-0.397003 -21.532043,-1.835007 -31.809998,-5.518005c-17.954041,-5.619003 -36.579041,-8.425995 -54.937012,-12.313004c-12.118011,-2.606995 -24.328003,-5.354004 -35.285004,-11.391998c-8.233002,-3.686996 -16.166016,-8.013992 -24.47702,-11.378998c-6.822998,-4.503998 -17.436981,-12.706009 -23.934998,-3.499008c-8.91098,4.328003 -19.104004,4.242004 -26.660004,11.45401c-5.403992,9.29599 -14.436981,14.640991 -25.500977,12.468002c-10.243011,2.620987 -20.411011,0.063995 -30.482025,-2.029999c-11.422974,-2.470001 -22.444,-6.529007 -34.196991,-7.28801c-10.394989,-2.194992 -20.95401,-3.313004 -31.51001,-4.397003c-11.023987,-1.391998 -22.875,0.429001 -32.939987,-5.251999c-1.421997,-2.440002 -2.156998,-3.791992 1.703995,-3.572998c8.903992,0.57901 18.891022,-4.582001 20.528992,6.843002c17.979004,0.563004 36.624023,-3.447006 53.071014,4.289001c7.294006,-4.912003 7.178986,-16.647003 18.959991,-9.330994c2.869995,-1.295013 -3.42099,-6.990005 5.763,-7.203003c0.447998,-6.978012 9.621002,2.310989 11.171997,-4.845001c-1.703979,9.92099 19.21402,19.591003 5.476013,6.681992c-5.55899,-12.963989 7.868988,-4.187988 5.993988,3.70401c3.950012,8.608994 31.669006,7.535995 13.860016,-0.727005c1.595001,-11.981995 24.039001,10.274002 22.203003,-5.535004c1.613983,-4.481995 14.983002,-0.619995 5.763,5.403c0.431,1.751007 2.600006,1.969009 3.600983,3.240997m-309.012993,14.992004c-0.989998,-3.848999 -6.156998,-5.751999 -3.125999,-7.860001c3.786003,-0.375 7.579002,1.940002 11.312004,0.354996c5.18,-1.607986 10.739998,-0.435989 15.905998,-2.163986c6.746002,-1.678009 13.781006,-0.755005 20.656998,-1.001007c3.886993,0.365005 7.475998,-1.388 11.033005,-2.615005c1.531998,-0.916992 4.797989,-4.270996 0.787994,-3.526001c-3.867004,0.279007 -7.871002,1.199005 -11.613998,-0.307999c-3.664001,-1.643997 -5.386993,4.145004 -9.143005,2.564011c-4.153992,-1.397003 -8.503998,-2.070999 -12.890991,-1.878006c-5.705002,-0.457001 -11.025002,2.050995 -16.663002,2.296997c-4.829002,0.348999 -9.417999,2.428009 -14.331001,2.024002c-1.567497,0.25 -6.259399,-0.153992 -2.724098,-1.789993c3.962097,-1.966003 8.592094,-0.164001 12.729095,-1.480011c3.782005,-0.860992 7.862999,0.425003 11.497002,-1.013992c0.397003,-2.399002 -4.954002,-1.137009 -6.722,-1.477005c-5.625999,-0.009995 -11.360001,-0.32399 -16.792603,1.44101c-2.212593,0.839996 -2.523796,-0.190002 -0.270798,-0.917999c3.081398,-1.26001 7.389404,-2.080002 7.473404,-6.286011c-4.851006,1.104004 -9.140999,4.169006 -14.196205,4.557999c-3.851601,1.003998 -7.830498,1.236008 -11.734497,1.925003c-1.669502,1.863007 -3.423798,5.298004 -3.226204,7.335999c4.473305,2.410004 26.761902,9.986008 32.038902,9.817001z" stroke-width="1px" stroke-opacity="0.660714" fill-rule="evenodd" fill="#007f7f" opacity="0.4" id="path3744"/>
 </g>
</svg>